<mxfile host="app.diagrams.net" modified="2024-02-16T11:33:12.044Z" agent="Mozilla/5.0 (Windows NT 10.0; Win64; x64) AppleWebKit/537.36 (KHTML, like Gecko) Chrome/121.0.0.0 Safari/537.36" version="22.1.16" etag="22IV8kFg_9EhRFh86qif" type="github">
  <diagram name="Page-1" id="MbMx76x-FA_294pmURPq">
    <mxGraphModel>
      <root>
        <mxCell id="0" />
        <mxCell id="1" parent="0" />
      </root>
    </mxGraphModel>
  </diagram>
</mxfile>
